# xmcd CD database file generated by OrangeCD 6.3
#
# Track frame offsets:
#	150
#	14320
#	33718
#	49909
#	66730
#	84365
#	104955
#
# Disc length: 1571 seconds
#
# Revision: 1
# Processed by: cddbd v1.5.2PL0 Copyright (c) Steve Scherf et al.
# Submitted via: OrangeCD 6.3
#
DISCID=65062107
DTITLE=The Dean Brothers - Let's Dance 2
DYEAR=1998
DGENRE=Country
TTITLE0=Boogie And Beethoven
TTITLE1=Under The Boardwalk
TTITLE2=T-Bone Shuffle
TTITLE3=Halfway To Paradise
TTITLE4=Save The Last Dance For Me
TTITLE5=Dance The Night Away
TTITLE6=The Deanie Jig
EXTD=
EXTT0=
EXTT1=
EXTT2=
EXTT3=
EXTT4=
EXTT5=
EXTT6=
PLAYORDER=
